<svg id="Layer_3" data-name="Layer 3" xmlns="http://www.w3.org/2000/svg" viewBox="0 0 31.91 32"><defs><style>.cls-1{fill:#ff5b16;}.cls-2{opacity:0.7;}.cls-3{fill:#ffa631;}.cls-4{opacity:0.7;}</style></defs><path class="cls-1" d="M13.77,20.07a16.19,16.19,0,0,1-1.26-6.7A27.09,27.09,0,0,1,.58,15.91,14.56,14.56,0,0,0,13.77,20.07Z" transform="translate(-0.58 0)"/><path class="cls-2" d="M12.54,14.54l0-1.11L.58,15.91A27.58,27.58,0,0,0,12.54,14.54Z" transform="translate(-0.58 0)"/><path class="cls-3" d="M.66,16c.26.17,15.83,16,15.83,16a19.9,19.9,0,0,0,4.13-13.25,22.61,22.61,0,0,1-7,1.32,22.11,22.11,0,0,1-4.16-.25A19.6,19.6,0,0,1,.66,16Z" transform="translate(-0.58 0)"/><path class="cls-2" d="M19.81,19a24.72,24.72,0,0,1-3.32,13c3.12-4.37,5.07-8.77,4.13-13.25Z" transform="translate(-0.58 0)"/><path class="cls-1" d="M19.07,11.87A19.13,19.13,0,0,1,32.49,16l-16,16C20.54,25,22,18.22,19.07,11.87Z" transform="translate(-0.58 0)"/><path class="cls-4" d="M19.41,12.66c6.2-.1,9.3.9,13.08,3.34-3.86-3.81-8.28-5.37-13.42-4.13Z" transform="translate(-0.58 0)"/><path class="cls-3" d="M.58,15.91c7.44.37,11.61-2.83,15.31-3.61A20.76,20.76,0,0,1,32.49,16l-16-16Z" transform="translate(-0.58 0)"/></svg>